<?xml version="1.0" encoding="UTF-8"?>
<svg fill="none" viewBox="0 0 28 26" xmlns="http://www.w3.org/2000/svg">
<g clip-path="url(#b)">
<path d="m10.625 20c5.5228 0 10-4.4772 10-10 0-5.5228-4.4772-10-10-10-5.5228 0-10 4.4772-10 10 0 5.5228 4.4772 10 10 10z" fill="url(#a)"/>
<path d="m5.1516 9.894c2.9152-1.2701 4.8591-2.1074 5.8318-2.512 2.7771-1.1551 3.3541-1.3557 3.7303-1.3624 0.0827-0.00146 0.2676 0.01905 0.3875 0.11627 0.1011 0.08209 0.129 0.19298 0.1423 0.27081s0.0299 0.25513 0.0167 0.39366c-0.1505 1.5812-0.8017 5.4185-1.133 7.1895-0.1401 0.7494-0.4161 1.0007-0.6834 1.0253-0.5807 0.0534-1.0216-0.3838-1.5841-0.7525-0.8801-0.577-1.3773-0.9361-2.2317-1.4991-0.98731-0.6506-0.34728-1.0082 0.21539-1.5926 0.14725-0.1529 2.7059-2.4802 2.7555-2.6914 0.0061-0.0264 0.0119-0.12482-0.0466-0.17679-0.0584-0.05197-0.1447-0.0342-0.207-0.02007-0.0883 0.02004-1.4943 0.94936-4.2181 2.7879-0.39909 0.2741-0.76058 0.4076-1.0845 0.4006-0.35705-0.0077-1.0439-0.2019-1.5545-0.3678-0.62625-0.2036-1.124-0.3112-1.0806-0.6569 0.02258-0.1801 0.27055-0.3643 0.74394-0.55253z" clip-rule="evenodd" fill="#fff" fill-rule="evenodd"/>
</g>
<rect x="10.5" y="8.5" width="17" height="17" rx="8.5" fill="#3C3F47"/>
<rect x="10.5" y="8.5" width="17" height="17" rx="8.5" fill="#fff" fill-opacity=".1"/>
<rect x="10.5" y="8.5" width="17" height="17" rx="8.5" stroke="#3C3F47"/>
<path d="m22.234 18.142c0.699 0 1.2657 0.5756 1.2657 1.2857v0.5171c0 0.625-0.2686 1.2188-0.7354 1.6258-0.8806 0.768-2.1408 1.1433-3.7665 1.1433-1.6253 0-2.8847-0.3752-3.7639-1.143-0.4661-0.407-0.7342-1.0004-0.7342-1.6248v-0.5184c0-0.7101 0.5667-1.2857 1.2657-1.2857h6.4686zm-3.2932-6.8527 0.0572-0.0039c0.2136 0 0.3901 0.1612 0.4181 0.3704l0.0038 0.0581-4e-4 0.428 1.969 3e-4c0.6991 0 1.2657 0.5756 1.2657 1.2857v2.5739c0 0.7101-0.5666 1.2857-1.2657 1.2857h-4.7814c-0.699 0-1.2656-0.5756-1.2656-1.2857v-2.5739c0-0.7101 0.5666-1.2857 1.2656-1.2857l1.9686-3e-4 4e-4 -0.428c0-0.2169 0.1588-0.3963 0.3647-0.4246zm-1.209 2.5671c-0.3881 0-0.7028 0.3196-0.7028 0.7139 0 0.3942 0.3147 0.7138 0.7028 0.7138s0.7027-0.3196 0.7027-0.7138c0-0.3943-0.3146-0.7139-0.7027-0.7139zm2.5272 0c-0.3881 0-0.7027 0.3196-0.7027 0.7139 0 0.3942 0.3146 0.7138 0.7027 0.7138s0.7028-0.3196 0.7028-0.7138c0-0.3943-0.3147-0.7139-0.7028-0.7139z" fill="#fff"/>
<defs>
<linearGradient id="a" x1="10.625" x2="10.625" y2="19.852" gradientUnits="userSpaceOnUse">
<stop stop-color="#2AABEE" offset="0"/>
<stop stop-color="#229ED9" offset="1"/>
</linearGradient>
<clipPath id="b">
<rect transform="translate(.625)" width="20" height="20" fill="#fff"/>
</clipPath>
</defs>
</svg>