<?xml version="1.0" encoding="UTF-8" standalone="no"?>
<!-- Created with Inkscape (http://www.inkscape.org/) -->

<svg
   width="80"
   height="80"
   viewBox="0 0 21.166666 21.166667"
   version="1.1"
   id="svg5"
   inkscape:version="1.2.2 (732a01da63, 2022-12-09)"
   sodipodi:docname="web.svg"
   xmlns:inkscape="http://www.inkscape.org/namespaces/inkscape"
   xmlns:sodipodi="http://sodipodi.sourceforge.net/DTD/sodipodi-0.dtd"
   xmlns="http://www.w3.org/2000/svg"
   xmlns:svg="http://www.w3.org/2000/svg">
  <sodipodi:namedview
     id="namedview7"
     pagecolor="#505050"
     bordercolor="#eeeeee"
     borderopacity="1"
     inkscape:showpageshadow="0"
     inkscape:pageopacity="0"
     inkscape:pagecheckerboard="0"
     inkscape:deskcolor="#505050"
     inkscape:document-units="mm"
     showgrid="false"
     inkscape:zoom="8.3553672"
     inkscape:cx="62.115762"
     inkscape:cy="40.093989"
     inkscape:window-width="1920"
     inkscape:window-height="1009"
     inkscape:window-x="-8"
     inkscape:window-y="-8"
     inkscape:window-maximized="1"
     inkscape:current-layer="layer1" />
  <defs
     id="defs2" />
  <g
     inkscape:label="Слой 1"
     inkscape:groupmode="layer"
     id="layer1">
    <ellipse
       style="fill:none;fill-opacity:0.498282;stroke:#08b6f8;stroke-width:1.57155;stroke-linecap:round;stroke-dasharray:none;stroke-opacity:1;paint-order:markers fill stroke"
       id="path900"
       cx="10.58333"
       cy="10.583323"
       rx="9.7975607"
       ry="9.7975664" />
    <ellipse
       style="fill:none;fill-opacity:0.498282;stroke:#08b6f8;stroke-width:1.69384;stroke-linecap:round;stroke-dasharray:none;stroke-opacity:1;paint-order:markers fill stroke"
       id="path1683"
       cx="10.58333"
       cy="10.583323"
       rx="4.2838531"
       ry="9.7364187" />
    <path
       id="path1683-7"
       style="color:#000000;fill:#08b6f8;stroke-width:0.247488;stroke-linecap:round;-inkscape-stroke:none;paint-order:markers fill stroke"
       d="M 4.109853,4.1707697 C 3.6658704,4.567285 3.2589261,5.0042225 2.8944853,5.4759171 c 1.9542156,0.9823241 4.6658825,1.545458 7.6887917,1.545458 3.022905,0 5.734538,-0.5631168 7.688792,-1.5457155 -0.364378,-0.4715859 -0.77135,-0.908325 -1.215239,-1.3047637 -1.612029,0.6885335 -3.921852,1.1566644 -6.473553,1.1566644 -2.5517595,0 -4.8613451,-0.4680888 -6.473424,-1.1567906 z" />
    <path
       id="path1683-7-8"
       style="color:#000000;fill:#08b6f8;stroke-width:0.247488;stroke-linecap:round;-inkscape-stroke:none;paint-order:markers fill stroke"
       d="m 10.583277,14.145265 c -2.7893229,0 -5.3186556,0.487205 -7.2259478,1.326379 -0.3161081,0.139081 -0.6138143,0.288915 -0.8948661,0.448263 0.3158863,0.481116 0.6730755,0.932422 1.0672661,1.348375 0.1609987,-0.08432 0.3302625,-0.166784 0.5101645,-0.245938 1.6165924,-0.71127 3.9554434,-1.183264 6.5433833,-1.183264 2.587941,0 4.926923,0.471994 6.543511,1.183264 0.179923,0.07916 0.349025,0.16174 0.510037,0.246067 0.394239,-0.415987 0.751477,-0.867341 1.067393,-1.348504 -0.28106,-0.159356 -0.578745,-0.309177 -0.894866,-0.448263 -1.907292,-0.839174 -4.436751,-1.326379 -7.226075,-1.326379 z" />
    <path
       style="fill:none;fill-opacity:0.498282;stroke:#08b6f8;stroke-width:1.57155;stroke-linecap:round;stroke-dasharray:none;stroke-opacity:1;paint-order:markers fill stroke"
       d="M 0.78576785,10.583325 H 20.380891"
       id="path1739" />
    <path
       style="fill:none;fill-opacity:0.498282;stroke:#08b6f8;stroke-width:1.57155;stroke-linecap:round;stroke-dasharray:none;stroke-opacity:1;paint-order:markers fill stroke"
       d="M 10.583329,0.78575887 V 20.380891"
       id="path1741" />
  </g>
</svg>
