<?xml version="1.0" encoding="UTF-8" standalone="no"?>
<!-- Created with Inkscape (http://www.inkscape.org/) -->

<svg
   width="1920"
   height="1920"
   viewBox="0 0 507.99999 508"
   version="1.1"
   id="svg5"
   inkscape:version="1.2.2 (732a01da63, 2022-12-09)"
   sodipodi:docname="web.svg"
   xmlns:inkscape="http://www.inkscape.org/namespaces/inkscape"
   xmlns:sodipodi="http://sodipodi.sourceforge.net/DTD/sodipodi-0.dtd"
   xmlns="http://www.w3.org/2000/svg"
   xmlns:svg="http://www.w3.org/2000/svg">
  <sodipodi:namedview
     id="namedview7"
     pagecolor="#505050"
     bordercolor="#eeeeee"
     borderopacity="1"
     inkscape:showpageshadow="0"
     inkscape:pageopacity="0"
     inkscape:pagecheckerboard="0"
     inkscape:deskcolor="#505050"
     inkscape:document-units="mm"
     showgrid="false"
     inkscape:zoom="0.36925855"
     inkscape:cx="904.51528"
     inkscape:cy="918.05592"
     inkscape:window-width="1920"
     inkscape:window-height="1009"
     inkscape:window-x="-8"
     inkscape:window-y="-8"
     inkscape:window-maximized="1"
     inkscape:current-layer="layer1" />
  <defs
     id="defs2" />
  <g
     inkscape:label="Слой 1"
     inkscape:groupmode="layer"
     id="layer1">
    <ellipse
       style="fill:none;fill-opacity:0.498282;stroke:#08b6f8;stroke-width:37.7172;stroke-linecap:round;stroke-dasharray:none;stroke-opacity:1;paint-order:markers fill stroke"
       id="path900"
       cx="254.00002"
       cy="253.99997"
       rx="235.1414"
       ry="235.14139" />
    <ellipse
       style="fill:none;fill-opacity:0.498282;stroke:#08b6f8;stroke-width:40.6522;stroke-linecap:round;stroke-dasharray:none;stroke-opacity:1;paint-order:markers fill stroke"
       id="path1683"
       cx="254.00002"
       cy="253.99997"
       rx="102.81245"
       ry="233.67386" />
    <path
       id="path1683-7"
       style="color:#000000;fill:#08b6f8;stroke-width:5.9397;stroke-linecap:round;-inkscape-stroke:none;paint-order:markers fill stroke"
       d="m 98.636616,100.09883 c -10.655581,9.51636 -20.42224,20.00285 -29.168818,31.32351 46.901162,23.57576 111.981152,37.09096 184.530962,37.09096 72.54969,0 137.62886,-13.51479 184.53096,-37.09714 -8.74509,-11.31805 -18.5124,-21.79978 -29.16573,-31.3143 -38.68869,16.52479 -94.12443,27.75992 -155.36523,27.75992 -61.24222,0 -116.67226,-11.23412 -155.362144,-27.76295 z" />
    <path
       id="path1683-7-8"
       style="color:#000000;fill:#08b6f8;stroke-width:5.9397;stroke-linecap:round;-inkscape-stroke:none;paint-order:markers fill stroke"
       d="m 253.99876,339.4865 c -66.94374,0 -127.64771,11.69292 -173.422712,31.83309 -7.586592,3.33793 -14.731539,6.93395 -21.476779,10.75829 7.581268,11.54678 16.153807,22.37812 25.614378,32.36098 3.863968,-2.02359 7.9263,-4.00283 12.243947,-5.90252 38.798206,-17.07047 94.930616,-28.39831 157.041166,-28.39831 62.11055,0 118.24611,11.32784 157.04421,28.39831 4.31816,1.89993 8.37659,3.88177 12.2409,5.90562 9.46172,-9.9837 18.03544,-20.81617 25.61741,-32.36408 -6.74543,-3.82453 -13.88988,-7.42024 -21.47678,-10.75829 -45.775,-20.14017 -106.482,-31.83309 -173.42574,-31.83309 z" />
    <path
       style="fill:none;fill-opacity:0.498282;stroke:#08b6f8;stroke-width:37.7172;stroke-linecap:round;stroke-dasharray:none;stroke-opacity:1;paint-order:markers fill stroke"
       d="M 18.858593,254.00003 H 489.14143"
       id="path1739" />
    <path
       style="fill:none;fill-opacity:0.498282;stroke:#08b6f8;stroke-width:37.7172;stroke-linecap:round;stroke-dasharray:none;stroke-opacity:1;paint-order:markers fill stroke"
       d="M 254.00001,18.858641 V 489.14141"
       id="path1741" />
  </g>
</svg>
